{
	"asset":{
		"generator":"Khronos glTF Blender I/O v4.1.63",
		"version":"2.0"
	},
	"scene":0,
	"scenes":[
		{
			"name":"Scene",
			"nodes":[
				0,
				1
			]
		}
	],
	"nodes":[
		{
			"mesh":0,
			"name":"Plane",
			"rotation":[
				0,
				0,
				0.9848078489303589,
				0.17364823818206787
			],
			"scale":[
				1.9199999570846558,
				1,
				1
			],
			"translation":[
				-17.300003051757812,
				1.9899998903274536,
				0
			]
		},
		{
			"mesh":1,
			"name":"Cylinder",
			"translation":[
				-21.299999237060547,
				1.7399998903274536,
				0
			]
		}
	],
	"materials":[
		{
			"doubleSided":true,
			"name":"grass",
			"pbrMetallicRoughness":{
				"baseColorFactor":[
					0.05951053649187088,
					0.4620775580406189,
					0.014443946070969105,
					1
				],
				"metallicFactor":0,
				"roughnessFactor":0.5
			}
		},
		{
			"doubleSided":true,
			"name":"border",
			"pbrMetallicRoughness":{
				"baseColorFactor":[
					0.3185451030731201,
					0.15292631089687347,
					0.0030353106558322906,
					1
				],
				"metallicFactor":0,
				"roughnessFactor":0.5
			}
		},
		{
			"doubleSided":true,
			"name":"inside",
			"pbrMetallicRoughness":{
				"baseColorFactor":[
					0.7990984320640564,
					0.5583411455154419,
					0.039546385407447815,
					1
				],
				"metallicFactor":0,
				"roughnessFactor":0.5
			}
		},
		{
			"doubleSided":true,
			"name":"plate.001",
			"pbrMetallicRoughness":{
				"baseColorFactor":[
					0.07618501037359238,
					0.01096009835600853,
					0,
					1
				],
				"metallicFactor":0,
				"roughnessFactor":0.5
			}
		},
		{
			"doubleSided":true,
			"name":"plate",
			"pbrMetallicRoughness":{
				"metallicFactor":0,
				"roughnessFactor":0.5
			}
		},
		{
			"doubleSided":true,
			"name":"body",
			"pbrMetallicRoughness":{
				"baseColorFactor":[
					0.21927019953727722,
					0.0553211085498333,
					0.0009734200430102646,
					1
				],
				"metallicFactor":0,
				"roughnessFactor":0.5
			}
		},
		{
			"doubleSided":true,
			"name":"ring",
			"pbrMetallicRoughness":{
				"baseColorFactor":[
					0.04954993724822998,
					0.04506375640630722,
					0.08465705066919327,
					1
				],
				"metallicFactor":0,
				"roughnessFactor":0.5
			}
		},
		{
			"doubleSided":true,
			"name":"stuff",
			"pbrMetallicRoughness":{
				"baseColorFactor":[
					0.10623005032539368,
					0.004130853805691004,
					0.003560640849173069,
					1
				],
				"metallicFactor":0,
				"roughnessFactor":0.5
			}
		},
		{
			"doubleSided":true,
			"name":"grass.001",
			"pbrMetallicRoughness":{
				"baseColorFactor":[
					0.05951053649187088,
					0.4620775580406189,
					0.014443946070969105,
					1
				],
				"metallicFactor":0,
				"roughnessFactor":0.5
			}
		},
		{
			"doubleSided":true,
			"name":"bordere",
			"pbrMetallicRoughness":{
				"baseColorFactor":[
					0.3185451030731201,
					0.15292631089687347,
					0.0030353106558322906,
					1
				],
				"metallicFactor":0,
				"roughnessFactor":0.5
			}
		},
		{
			"doubleSided":true,
			"name":"inside.001",
			"pbrMetallicRoughness":{
				"baseColorFactor":[
					0.7990984320640564,
					0.5583411455154419,
					0.039546385407447815,
					1
				],
				"metallicFactor":0,
				"roughnessFactor":0.5
			}
		}
	],
	"meshes":[
		{
			"name":"Plane",
			"primitives":[
				{
					"attributes":{
						"POSITION":0,
						"NORMAL":1,
						"TEXCOORD_0":2
					},
					"indices":3,
					"material":0
				},
				{
					"attributes":{
						"POSITION":4,
						"NORMAL":5,
						"TEXCOORD_0":6
					},
					"indices":7,
					"material":1
				},
				{
					"attributes":{
						"POSITION":8,
						"NORMAL":9,
						"TEXCOORD_0":10
					},
					"indices":11,
					"material":2
				},
				{
					"attributes":{
						"POSITION":12,
						"NORMAL":13,
						"TEXCOORD_0":14
					},
					"indices":15,
					"material":3
				},
				{
					"attributes":{
						"POSITION":16,
						"NORMAL":17,
						"TEXCOORD_0":18
					},
					"indices":15,
					"material":4
				}
			]
		},
		{
			"name":"Cylinder",
			"primitives":[
				{
					"attributes":{
						"POSITION":19,
						"NORMAL":20,
						"TEXCOORD_0":21
					},
					"indices":22,
					"material":5
				},
				{
					"attributes":{
						"POSITION":23,
						"NORMAL":24,
						"TEXCOORD_0":25
					},
					"indices":26,
					"material":6
				},
				{
					"attributes":{
						"POSITION":27,
						"NORMAL":28,
						"TEXCOORD_0":29
					},
					"indices":30,
					"material":7
				},
				{
					"attributes":{
						"POSITION":31,
						"NORMAL":32,
						"TEXCOORD_0":33
					},
					"indices":34,
					"material":8
				},
				{
					"attributes":{
						"POSITION":35,
						"NORMAL":36,
						"TEXCOORD_0":37
					},
					"indices":38,
					"material":9
				},
				{
					"attributes":{
						"POSITION":39,
						"NORMAL":40,
						"TEXCOORD_0":41
					},
					"indices":42,
					"material":10
				}
			]
		}
	],
	"accessors":[
		{
			"bufferView":0,
			"componentType":5126,
			"count":124,
			"max":[
				-0.03846931457519531,
				1.931204080581665,
				4.870818138122559
			],
			"min":[
				-9.670352935791016,
				-5.370929718017578,
				-4.870818138122559
			],
			"type":"VEC3"
		},
		{
			"bufferView":1,
			"componentType":5126,
			"count":124,
			"type":"VEC3"
		},
		{
			"bufferView":2,
			"componentType":5126,
			"count":124,
			"type":"VEC2"
		},
		{
			"bufferView":3,
			"componentType":5123,
			"count":414,
			"type":"SCALAR"
		},
		{
			"bufferView":4,
			"componentType":5126,
			"count":216,
			"max":[
				0.23993968963623047,
				1.931204080581665,
				4.870818138122559
			],
			"min":[
				-9.670352935791016,
				-6.268429756164551,
				-4.870818138122559
			],
			"type":"VEC3"
		},
		{
			"bufferView":5,
			"componentType":5126,
			"count":216,
			"type":"VEC3"
		},
		{
			"bufferView":6,
			"componentType":5126,
			"count":216,
			"type":"VEC2"
		},
		{
			"bufferView":7,
			"componentType":5123,
			"count":432,
			"type":"SCALAR"
		},
		{
			"bufferView":8,
			"componentType":5126,
			"count":110,
			"max":[
				-0.1424880027770996,
				0.8255541324615479,
				4.007582664489746
			],
			"min":[
				-9.128992080688477,
				-6.001180648803711,
				-4.007582664489746
			],
			"type":"VEC3"
		},
		{
			"bufferView":9,
			"componentType":5126,
			"count":110,
			"type":"VEC3"
		},
		{
			"bufferView":10,
			"componentType":5126,
			"count":110,
			"type":"VEC2"
		},
		{
			"bufferView":11,
			"componentType":5123,
			"count":216,
			"type":"SCALAR"
		},
		{
			"bufferView":12,
			"componentType":5126,
			"count":4,
			"max":[
				1,
				0,
				1
			],
			"min":[
				-1,
				0,
				-1
			],
			"type":"VEC3"
		},
		{
			"bufferView":13,
			"componentType":5126,
			"count":4,
			"type":"VEC3"
		},
		{
			"bufferView":14,
			"componentType":5126,
			"count":4,
			"type":"VEC2"
		},
		{
			"bufferView":15,
			"componentType":5123,
			"count":6,
			"type":"SCALAR"
		},
		{
			"bufferView":16,
			"componentType":5126,
			"count":4,
			"max":[
				-8.234475135803223,
				-4.775396823883057,
				0.7300000190734863
			],
			"min":[
				-8.900090217590332,
				-5.240543842315674,
				-0.7300000190734863
			],
			"type":"VEC3"
		},
		{
			"bufferView":17,
			"componentType":5126,
			"count":4,
			"type":"VEC3"
		},
		{
			"bufferView":18,
			"componentType":5126,
			"count":4,
			"type":"VEC2"
		},
		{
			"bufferView":19,
			"componentType":5126,
			"count":1162,
			"max":[
				1.1664737462997437,
				1.0867890119552612,
				1.1073217391967773
			],
			"min":[
				-1.1664737462997437,
				-1.0852453708648682,
				-1.1073217391967773
			],
			"type":"VEC3"
		},
		{
			"bufferView":20,
			"componentType":5126,
			"count":1162,
			"type":"VEC3"
		},
		{
			"bufferView":21,
			"componentType":5126,
			"count":1162,
			"type":"VEC2"
		},
		{
			"bufferView":22,
			"componentType":5123,
			"count":2112,
			"type":"SCALAR"
		},
		{
			"bufferView":23,
			"componentType":5126,
			"count":132,
			"max":[
				1.1664737462997437,
				0.4837341606616974,
				1.1073217391967773
			],
			"min":[
				-1.1664737462997437,
				-0.5268595814704895,
				-1.1073217391967773
			],
			"type":"VEC3"
		},
		{
			"bufferView":24,
			"componentType":5126,
			"count":132,
			"type":"VEC3"
		},
		{
			"bufferView":25,
			"componentType":5126,
			"count":132,
			"type":"VEC2"
		},
		{
			"bufferView":26,
			"componentType":5123,
			"count":384,
			"type":"SCALAR"
		},
		{
			"bufferView":27,
			"componentType":5126,
			"count":320,
			"max":[
				0.8717550039291382,
				1.0867890119552612,
				0.8275482058525085
			],
			"min":[
				-0.8717550039291382,
				-1.0852453708648682,
				-0.8275482058525085
			],
			"type":"VEC3"
		},
		{
			"bufferView":28,
			"componentType":5126,
			"count":320,
			"type":"VEC3"
		},
		{
			"bufferView":29,
			"componentType":5126,
			"count":320,
			"type":"VEC2"
		},
		{
			"bufferView":30,
			"componentType":5123,
			"count":564,
			"type":"SCALAR"
		},
		{
			"bufferView":31,
			"componentType":5126,
			"count":315,
			"max":[
				1.2570343017578125,
				-1.007081389427185,
				6.459396839141846
			],
			"min":[
				-18.513320922851562,
				-1.323894739151001,
				-6.459397792816162
			],
			"type":"VEC3"
		},
		{
			"bufferView":32,
			"componentType":5126,
			"count":315,
			"type":"VEC3"
		},
		{
			"bufferView":33,
			"componentType":5126,
			"count":315,
			"type":"VEC2"
		},
		{
			"bufferView":34,
			"componentType":5123,
			"count":756,
			"type":"SCALAR"
		},
		{
			"bufferView":35,
			"componentType":5126,
			"count":416,
			"max":[
				2.439455032348633,
				-0.408610463142395,
				7.469202995300293
			],
			"min":[
				-19.69573974609375,
				-1.7399998903274536,
				-7.469204425811768
			],
			"type":"VEC3"
		},
		{
			"bufferView":36,
			"componentType":5126,
			"count":416,
			"type":"VEC3"
		},
		{
			"bufferView":37,
			"componentType":5126,
			"count":416,
			"type":"VEC2"
		},
		{
			"bufferView":38,
			"componentType":5123,
			"count":912,
			"type":"SCALAR"
		},
		{
			"bufferView":39,
			"componentType":5126,
			"count":208,
			"max":[
				1.2570343017578125,
				-0.408610463142395,
				6.459396839141846
			],
			"min":[
				-18.513320922851562,
				-1.7399998903274536,
				-6.459397792816162
			],
			"type":"VEC3"
		},
		{
			"bufferView":40,
			"componentType":5126,
			"count":208,
			"type":"VEC3"
		},
		{
			"bufferView":41,
			"componentType":5126,
			"count":208,
			"type":"VEC2"
		},
		{
			"bufferView":42,
			"componentType":5123,
			"count":312,
			"type":"SCALAR"
		}
	],
	"bufferViews":[
		{
			"buffer":0,
			"byteLength":1488,
			"byteOffset":0,
			"target":34962
		},
		{
			"buffer":0,
			"byteLength":1488,
			"byteOffset":1488,
			"target":34962
		},
		{
			"buffer":0,
			"byteLength":992,
			"byteOffset":2976,
			"target":34962
		},
		{
			"buffer":0,
			"byteLength":828,
			"byteOffset":3968,
			"target":34963
		},
		{
			"buffer":0,
			"byteLength":2592,
			"byteOffset":4796,
			"target":34962
		},
		{
			"buffer":0,
			"byteLength":2592,
			"byteOffset":7388,
			"target":34962
		},
		{
			"buffer":0,
			"byteLength":1728,
			"byteOffset":9980,
			"target":34962
		},
		{
			"buffer":0,
			"byteLength":864,
			"byteOffset":11708,
			"target":34963
		},
		{
			"buffer":0,
			"byteLength":1320,
			"byteOffset":12572,
			"target":34962
		},
		{
			"buffer":0,
			"byteLength":1320,
			"byteOffset":13892,
			"target":34962
		},
		{
			"buffer":0,
			"byteLength":880,
			"byteOffset":15212,
			"target":34962
		},
		{
			"buffer":0,
			"byteLength":432,
			"byteOffset":16092,
			"target":34963
		},
		{
			"buffer":0,
			"byteLength":48,
			"byteOffset":16524,
			"target":34962
		},
		{
			"buffer":0,
			"byteLength":48,
			"byteOffset":16572,
			"target":34962
		},
		{
			"buffer":0,
			"byteLength":32,
			"byteOffset":16620,
			"target":34962
		},
		{
			"buffer":0,
			"byteLength":12,
			"byteOffset":16652,
			"target":34963
		},
		{
			"buffer":0,
			"byteLength":48,
			"byteOffset":16664,
			"target":34962
		},
		{
			"buffer":0,
			"byteLength":48,
			"byteOffset":16712,
			"target":34962
		},
		{
			"buffer":0,
			"byteLength":32,
			"byteOffset":16760,
			"target":34962
		},
		{
			"buffer":0,
			"byteLength":13944,
			"byteOffset":16792,
			"target":34962
		},
		{
			"buffer":0,
			"byteLength":13944,
			"byteOffset":30736,
			"target":34962
		},
		{
			"buffer":0,
			"byteLength":9296,
			"byteOffset":44680,
			"target":34962
		},
		{
			"buffer":0,
			"byteLength":4224,
			"byteOffset":53976,
			"target":34963
		},
		{
			"buffer":0,
			"byteLength":1584,
			"byteOffset":58200,
			"target":34962
		},
		{
			"buffer":0,
			"byteLength":1584,
			"byteOffset":59784,
			"target":34962
		},
		{
			"buffer":0,
			"byteLength":1056,
			"byteOffset":61368,
			"target":34962
		},
		{
			"buffer":0,
			"byteLength":768,
			"byteOffset":62424,
			"target":34963
		},
		{
			"buffer":0,
			"byteLength":3840,
			"byteOffset":63192,
			"target":34962
		},
		{
			"buffer":0,
			"byteLength":3840,
			"byteOffset":67032,
			"target":34962
		},
		{
			"buffer":0,
			"byteLength":2560,
			"byteOffset":70872,
			"target":34962
		},
		{
			"buffer":0,
			"byteLength":1128,
			"byteOffset":73432,
			"target":34963
		},
		{
			"buffer":0,
			"byteLength":3780,
			"byteOffset":74560,
			"target":34962
		},
		{
			"buffer":0,
			"byteLength":3780,
			"byteOffset":78340,
			"target":34962
		},
		{
			"buffer":0,
			"byteLength":2520,
			"byteOffset":82120,
			"target":34962
		},
		{
			"buffer":0,
			"byteLength":1512,
			"byteOffset":84640,
			"target":34963
		},
		{
			"buffer":0,
			"byteLength":4992,
			"byteOffset":86152,
			"target":34962
		},
		{
			"buffer":0,
			"byteLength":4992,
			"byteOffset":91144,
			"target":34962
		},
		{
			"buffer":0,
			"byteLength":3328,
			"byteOffset":96136,
			"target":34962
		},
		{
			"buffer":0,
			"byteLength":1824,
			"byteOffset":99464,
			"target":34963
		},
		{
			"buffer":0,
			"byteLength":2496,
			"byteOffset":101288,
			"target":34962
		},
		{
			"buffer":0,
			"byteLength":2496,
			"byteOffset":103784,
			"target":34962
		},
		{
			"buffer":0,
			"byteLength":1664,
			"byteOffset":106280,
			"target":34962
		},
		{
			"buffer":0,
			"byteLength":624,
			"byteOffset":107944,
			"target":34963
		}
	],
	"buffers":[
		{
			"byteLength":108568,
			"uri":"playground3New1.bin"
		}
	]
}
