{
	"asset":{
		"generator":"Khronos glTF Blender I/O v4.1.63",
		"version":"2.0"
	},
	"scene":0,
	"scenes":[
		{
			"name":"Scene",
			"nodes":[
				0
			]
		}
	],
	"nodes":[
		{
			"mesh":0,
			"name":"Circle.001",
			"scale":[
				5.645305156707764,
				5.645305156707764,
				5.645305156707764
			],
			"translation":[
				1.0099999904632568,
				0,
				-8.069999694824219
			]
		}
	],
	"materials":[
		{
			"doubleSided":true,
			"name":"grass",
			"pbrMetallicRoughness":{
				"baseColorFactor":[
					0.05951053649187088,
					0.4620775580406189,
					0.014443946070969105,
					1
				],
				"metallicFactor":0,
				"roughnessFactor":0.5
			}
		},
		{
			"doubleSided":true,
			"name":"border",
			"pbrMetallicRoughness":{
				"baseColorFactor":[
					0.3185451030731201,
					0.15292631089687347,
					0.0030353106558322906,
					1
				],
				"metallicFactor":0,
				"roughnessFactor":0.5
			}
		},
		{
			"doubleSided":true,
			"name":"inside",
			"pbrMetallicRoughness":{
				"baseColorFactor":[
					0.7990984320640564,
					0.5583411455154419,
					0.039546385407447815,
					1
				],
				"metallicFactor":0,
				"roughnessFactor":0.5
			}
		}
	],
	"meshes":[
		{
			"name":"Circle.001",
			"primitives":[
				{
					"attributes":{
						"POSITION":0,
						"NORMAL":1,
						"TEXCOORD_0":2
					},
					"indices":3,
					"material":0
				},
				{
					"attributes":{
						"POSITION":4,
						"NORMAL":5,
						"TEXCOORD_0":6
					},
					"indices":7,
					"material":1
				},
				{
					"attributes":{
						"POSITION":8,
						"NORMAL":9,
						"TEXCOORD_0":10
					},
					"indices":11,
					"material":2
				}
			]
		}
	],
	"accessors":[
		{
			"bufferView":0,
			"componentType":5126,
			"count":850,
			"max":[
				5.192877769470215,
				0.33881792426109314,
				3.442603588104248
			],
			"min":[
				-1.3023911714553833,
				-0.047824591398239136,
				-2.100235939025879
			],
			"type":"VEC3"
		},
		{
			"bufferView":1,
			"componentType":5126,
			"count":850,
			"type":"VEC3"
		},
		{
			"bufferView":2,
			"componentType":5126,
			"count":850,
			"type":"VEC2"
		},
		{
			"bufferView":3,
			"componentType":5123,
			"count":1995,
			"type":"SCALAR"
		},
		{
			"bufferView":4,
			"componentType":5126,
			"count":276,
			"max":[
				5.192877769470215,
				0.33881792426109314,
				3.442603588104248
			],
			"min":[
				-1.3023911714553833,
				0,
				-2.100235939025879
			],
			"type":"VEC3"
		},
		{
			"bufferView":5,
			"componentType":5126,
			"count":276,
			"type":"VEC3"
		},
		{
			"bufferView":6,
			"componentType":5126,
			"count":276,
			"type":"VEC2"
		},
		{
			"bufferView":7,
			"componentType":5123,
			"count":486,
			"type":"SCALAR"
		},
		{
			"bufferView":8,
			"componentType":5126,
			"count":208,
			"max":[
				4.890486717224121,
				0.33881792426109314,
				3.1402125358581543
			],
			"min":[
				-1,
				-0.047824591398239136,
				-1.797844648361206
			],
			"type":"VEC3"
		},
		{
			"bufferView":9,
			"componentType":5126,
			"count":208,
			"type":"VEC3"
		},
		{
			"bufferView":10,
			"componentType":5126,
			"count":208,
			"type":"VEC2"
		},
		{
			"bufferView":11,
			"componentType":5123,
			"count":318,
			"type":"SCALAR"
		}
	],
	"bufferViews":[
		{
			"buffer":0,
			"byteLength":10200,
			"byteOffset":0,
			"target":34962
		},
		{
			"buffer":0,
			"byteLength":10200,
			"byteOffset":10200,
			"target":34962
		},
		{
			"buffer":0,
			"byteLength":6800,
			"byteOffset":20400,
			"target":34962
		},
		{
			"buffer":0,
			"byteLength":3990,
			"byteOffset":27200,
			"target":34963
		},
		{
			"buffer":0,
			"byteLength":3312,
			"byteOffset":31192,
			"target":34962
		},
		{
			"buffer":0,
			"byteLength":3312,
			"byteOffset":34504,
			"target":34962
		},
		{
			"buffer":0,
			"byteLength":2208,
			"byteOffset":37816,
			"target":34962
		},
		{
			"buffer":0,
			"byteLength":972,
			"byteOffset":40024,
			"target":34963
		},
		{
			"buffer":0,
			"byteLength":2496,
			"byteOffset":40996,
			"target":34962
		},
		{
			"buffer":0,
			"byteLength":2496,
			"byteOffset":43492,
			"target":34962
		},
		{
			"buffer":0,
			"byteLength":1664,
			"byteOffset":45988,
			"target":34962
		},
		{
			"buffer":0,
			"byteLength":636,
			"byteOffset":47652,
			"target":34963
		}
	],
	"buffers":[
		{
			"byteLength":48288,
			"uri":"playgroundLvl4.bin"
		}
	]
}
